{
	"asset":{
		"generator":"Khronos glTF Blender I/O v3.6.27",
		"version":"2.0"
	},
	"scene":0,
	"scenes":[
		{
			"name":"Scene",
			"nodes":[
				0,
				1,
				2,
				3
			]
		}
	],
	"nodes":[
		{
			"mesh":0,
			"name":"object.001",
			"scale":[
				7.4967522621154785,
				7.4967522621154785,
				7.4967522621154785
			],
			"translation":[
				-0.43962106108665466,
				-0.12375545501708984,
				-0.3263324201107025
			]
		},
		{
			"name":"Empty.001",
			"scale":[
				7.4967522621154785,
				7.4967522621154785,
				7.4967522621154785
			],
			"translation":[
				-0.43962106108665466,
				-0.12375545501708984,
				-0.3263324201107025
			]
		},
		{
			"mesh":1,
			"name":"object",
			"scale":[
				7.4967522621154785,
				7.4967522621154785,
				7.4967522621154785
			],
			"translation":[
				-0.43962106108665466,
				-0.12375545501708984,
				-0.3263324201107025
			]
		},
		{
			"name":"Empty",
			"scale":[
				7.4967522621154785,
				7.4967522621154785,
				7.4967522621154785
			],
			"translation":[
				-0.43962106108665466,
				-0.12375545501708984,
				-0.3263324201107025
			]
		}
	],
	"animations":[
		{
			"channels":[
				{
					"sampler":0,
					"target":{
						"node":0,
						"path":"rotation"
					}
				}
			],
			"name":"objectAction",
			"samplers":[
				{
					"input":7,
					"interpolation":"LINEAR",
					"output":8
				}
			]
		},
		{
			"channels":[
				{
					"sampler":0,
					"target":{
						"node":2,
						"path":"rotation"
					}
				}
			],
			"name":"objectAction",
			"samplers":[
				{
					"input":7,
					"interpolation":"LINEAR",
					"output":9
				}
			]
		}
	],
	"materials":[
		{
			"doubleSided":true,
			"name":"Material_Right.001",
			"pbrMetallicRoughness":{
				"baseColorFactor":[
					1,
					0,
					0,
					1
				],
				"metallicFactor":0,
				"roughnessFactor":0.5
			}
		},
		{
			"doubleSided":true,
			"name":"Material_Right",
			"pbrMetallicRoughness":{
				"baseColorFactor":[
					1,
					0,
					0,
					1
				],
				"metallicFactor":0,
				"roughnessFactor":0.5
			}
		}
	],
	"meshes":[
		{
			"name":"Mesh.001",
			"primitives":[
				{
					"attributes":{
						"POSITION":0,
						"NORMAL":1,
						"TEXCOORD_0":2
					},
					"indices":3,
					"material":0
				}
			]
		},
		{
			"name":"Mesh",
			"primitives":[
				{
					"attributes":{
						"POSITION":4,
						"NORMAL":5,
						"TEXCOORD_0":6
					},
					"indices":3,
					"material":1
				}
			]
		}
	],
	"accessors":[
		{
			"bufferView":0,
			"componentType":5126,
			"count":630000,
			"max":[
				0.26239290833473206,
				0.2520168423652649,
				0.1785578578710556
			],
			"min":[
				-0.2561928629875183,
				-0.505247950553894,
				-0.2958444654941559
			],
			"type":"VEC3"
		},
		{
			"bufferView":1,
			"componentType":5126,
			"count":630000,
			"type":"VEC3"
		},
		{
			"bufferView":2,
			"componentType":5126,
			"count":630000,
			"type":"VEC2"
		},
		{
			"bufferView":3,
			"componentType":5125,
			"count":2400000,
			"type":"SCALAR"
		},
		{
			"bufferView":4,
			"componentType":5126,
			"count":630000,
			"max":[
				0.26239290833473206,
				0.2520168423652649,
				0.1785578578710556
			],
			"min":[
				-0.2561928629875183,
				-0.505247950553894,
				-0.2958444654941559
			],
			"type":"VEC3"
		},
		{
			"bufferView":5,
			"componentType":5126,
			"count":630000,
			"type":"VEC3"
		},
		{
			"bufferView":6,
			"componentType":5126,
			"count":630000,
			"type":"VEC2"
		},
		{
			"bufferView":7,
			"componentType":5126,
			"count":200,
			"max":[
				8.333333333333334
			],
			"min":[
				0.041666666666666664
			],
			"type":"SCALAR"
		},
		{
			"bufferView":8,
			"componentType":5126,
			"count":200,
			"type":"VEC4"
		},
		{
			"bufferView":9,
			"componentType":5126,
			"count":200,
			"type":"VEC4"
		}
	],
	"bufferViews":[
		{
			"buffer":0,
			"byteLength":7560000,
			"byteOffset":0,
			"target":34962
		},
		{
			"buffer":0,
			"byteLength":7560000,
			"byteOffset":7560000,
			"target":34962
		},
		{
			"buffer":0,
			"byteLength":5040000,
			"byteOffset":15120000,
			"target":34962
		},
		{
			"buffer":0,
			"byteLength":9600000,
			"byteOffset":20160000,
			"target":34963
		},
		{
			"buffer":0,
			"byteLength":7560000,
			"byteOffset":29760000,
			"target":34962
		},
		{
			"buffer":0,
			"byteLength":7560000,
			"byteOffset":37320000,
			"target":34962
		},
		{
			"buffer":0,
			"byteLength":5040000,
			"byteOffset":44880000,
			"target":34962
		},
		{
			"buffer":0,
			"byteLength":800,
			"byteOffset":49920000
		},
		{
			"buffer":0,
			"byteLength":3200,
			"byteOffset":49920800
		},
		{
			"buffer":0,
			"byteLength":3200,
			"byteOffset":49924000
		}
	],
	"buffers":[
		{
			"byteLength":49927200,
			"uri":"scene.bin"
		}
	]
}
